%
M48
M72
T01C0.02756
T02C0.03150
T03C0.03819
T04C0.04000
%
T01
X37142Y80122
X37142Y152957
X131000Y187524
X186000Y152524
X186000Y82524
X131000Y277524
T02
X181000Y277524
X181000Y267524
X181000Y257524
X181000Y247524
X181000Y237524
X181000Y227524
X181000Y217524
X181000Y207524
X181000Y197524
X181000Y187524
X181000Y142524
X181000Y132524
X181000Y122524
X181000Y112524
X181000Y102524
X181000Y92524
T03
X116000Y187524
X116000Y197524
X116000Y207524
X116000Y217524
X116000Y227524
X116000Y237524
X116000Y247524
X116000Y257524
X86000Y257524
X86000Y247524
X86000Y237524
X86000Y227524
X86000Y217524
X86000Y207524
X86000Y197524
X86000Y187524
T04
X76000Y182524
X61000Y192524
X46000Y207524
X31000Y217524
X16000Y217524
X16000Y207524
X16000Y192524
X16000Y182524
X16000Y172524
X16000Y162524
X16000Y152524
X16000Y142524
X16000Y132524
X16000Y122524
X16000Y112524
X16000Y102524
X61000Y162524
X76000Y152524
X46000Y177524
X31000Y187524
X16000Y227524
X16000Y237524
X16000Y247524
X16000Y257524
X16000Y267524
X16000Y277524
X31000Y282524
X41000Y272524
X51000Y262524
X61000Y257524
X41000Y242524
X51000Y232524
X61000Y227524
X31000Y252524
X206000Y257524
X206000Y267524
X206000Y277524
X206000Y247524
X206000Y237524
X206000Y227524
X206000Y207524
X206000Y197524
X206000Y187524
X206000Y177524
X206000Y167524
X206000Y157524
X206000Y147524
X206000Y137524
M30
