G75*
%MOIN*%
%OFA0B0*%
%FSLAX25Y25*%
%IPPOS*%
%LPD*%
%AMOC8*
5,1,8,0,0,1.08239X$1,22.5*
%
%ADD10C,0.08200*%
%ADD11C,0.00500*%
%ADD12C,0.06619*%
%ADD13C,0.05950*%
%ADD14C,0.03556*%
D10*
X0016000Y0102524D03*
X0016000Y0112524D03*
X0016000Y0122524D03*
X0016000Y0132524D03*
X0016000Y0142524D03*
X0016000Y0152524D03*
X0016000Y0162524D03*
X0016000Y0172524D03*
X0016000Y0182524D03*
X0016000Y0192524D03*
X0016000Y0207524D03*
X0016000Y0217524D03*
X0016000Y0227524D03*
X0016000Y0237524D03*
X0016000Y0247524D03*
X0016000Y0257524D03*
X0016000Y0267524D03*
X0016000Y0277524D03*
X0206000Y0277524D03*
X0206000Y0267524D03*
X0206000Y0257524D03*
X0206000Y0247524D03*
X0206000Y0237524D03*
X0206000Y0227524D03*
X0206000Y0207524D03*
X0206000Y0197524D03*
X0206000Y0187524D03*
X0206000Y0177524D03*
X0206000Y0167524D03*
X0206000Y0157524D03*
X0206000Y0147524D03*
X0206000Y0137524D03*
D11*
X0077790Y0152494D02*
X0077739Y0152101D01*
X0077602Y0151729D01*
X0077385Y0151397D01*
X0077100Y0151121D01*
X0076761Y0150916D01*
X0076385Y0150792D01*
X0075990Y0150754D01*
X0075607Y0150800D01*
X0075243Y0150931D01*
X0074918Y0151139D01*
X0074647Y0151415D01*
X0074444Y0151744D01*
X0074320Y0152109D01*
X0074280Y0152494D01*
X0074314Y0152875D01*
X0074432Y0153240D01*
X0074628Y0153569D01*
X0074892Y0153846D01*
X0075212Y0154057D01*
X0075570Y0154192D01*
X0075950Y0154244D01*
X0076351Y0154209D01*
X0076733Y0154085D01*
X0077079Y0153880D01*
X0077370Y0153603D01*
X0077593Y0153268D01*
X0077735Y0152892D01*
X0077790Y0152494D01*
X0077781Y0152561D02*
X0074286Y0152561D01*
X0074336Y0152062D02*
X0077725Y0152062D01*
X0077494Y0151564D02*
X0074555Y0151564D01*
X0075034Y0151065D02*
X0077007Y0151065D01*
X0077672Y0153059D02*
X0074373Y0153059D01*
X0074621Y0153558D02*
X0077400Y0153558D01*
X0076782Y0154056D02*
X0075211Y0154056D01*
X0062602Y0161729D02*
X0062385Y0161397D01*
X0062100Y0161121D01*
X0061761Y0160916D01*
X0061385Y0160792D01*
X0060990Y0160754D01*
X0060607Y0160800D01*
X0060243Y0160931D01*
X0059918Y0161139D01*
X0059647Y0161415D01*
X0059444Y0161744D01*
X0059320Y0162109D01*
X0059280Y0162494D01*
X0059314Y0162875D01*
X0059432Y0163240D01*
X0059628Y0163569D01*
X0059892Y0163846D01*
X0060212Y0164057D01*
X0060570Y0164192D01*
X0060950Y0164244D01*
X0061351Y0164209D01*
X0061733Y0164085D01*
X0062079Y0163880D01*
X0062370Y0163603D01*
X0062593Y0163268D01*
X0062735Y0162892D01*
X0062790Y0162494D01*
X0062739Y0162101D01*
X0062602Y0161729D01*
X0062474Y0161534D02*
X0059574Y0161534D01*
X0059346Y0162032D02*
X0062714Y0162032D01*
X0062785Y0162531D02*
X0059283Y0162531D01*
X0059364Y0163029D02*
X0062683Y0163029D01*
X0062420Y0163528D02*
X0059604Y0163528D01*
X0060166Y0164026D02*
X0061833Y0164026D01*
X0061958Y0161035D02*
X0060080Y0161035D01*
X0047100Y0176121D02*
X0046761Y0175916D01*
X0046385Y0175792D01*
X0045990Y0175754D01*
X0045607Y0175800D01*
X0045243Y0175931D01*
X0044918Y0176139D01*
X0044647Y0176415D01*
X0044444Y0176744D01*
X0044320Y0177109D01*
X0044280Y0177494D01*
X0044314Y0177875D01*
X0044432Y0178240D01*
X0044628Y0178569D01*
X0044892Y0178846D01*
X0045212Y0179057D01*
X0045570Y0179192D01*
X0045950Y0179244D01*
X0046351Y0179209D01*
X0046733Y0179085D01*
X0047079Y0178880D01*
X0047370Y0178603D01*
X0047593Y0178268D01*
X0047735Y0177892D01*
X0047790Y0177494D01*
X0047739Y0177101D01*
X0047602Y0176729D01*
X0047385Y0176397D01*
X0047100Y0176121D01*
X0046884Y0175991D02*
X0045150Y0175991D01*
X0044601Y0176489D02*
X0047445Y0176489D01*
X0047697Y0176988D02*
X0044361Y0176988D01*
X0044281Y0177486D02*
X0047789Y0177486D01*
X0047700Y0177985D02*
X0044349Y0177985D01*
X0044577Y0178483D02*
X0047450Y0178483D01*
X0046908Y0178982D02*
X0045098Y0178982D01*
X0032602Y0186729D02*
X0032385Y0186397D01*
X0032100Y0186121D01*
X0031761Y0185916D01*
X0031385Y0185792D01*
X0030990Y0185754D01*
X0030607Y0185800D01*
X0030243Y0185931D01*
X0029918Y0186139D01*
X0029647Y0186415D01*
X0029444Y0186744D01*
X0029320Y0187109D01*
X0029280Y0187494D01*
X0029314Y0187875D01*
X0029432Y0188240D01*
X0029628Y0188569D01*
X0029892Y0188846D01*
X0030212Y0189057D01*
X0030570Y0189192D01*
X0030950Y0189244D01*
X0031351Y0189209D01*
X0031733Y0189085D01*
X0032079Y0188880D01*
X0032370Y0188603D01*
X0032593Y0188268D01*
X0032735Y0187892D01*
X0032790Y0187494D01*
X0032739Y0187101D01*
X0032602Y0186729D01*
X0032686Y0186958D02*
X0029371Y0186958D01*
X0029284Y0187456D02*
X0032785Y0187456D01*
X0032711Y0187955D02*
X0029340Y0187955D01*
X0029559Y0188453D02*
X0032469Y0188453D01*
X0031958Y0188952D02*
X0030053Y0188952D01*
X0029620Y0186459D02*
X0032426Y0186459D01*
X0031835Y0185961D02*
X0030197Y0185961D01*
X0044888Y0206169D02*
X0044617Y0206445D01*
X0044414Y0206774D01*
X0044290Y0207139D01*
X0044250Y0207524D01*
X0044284Y0207905D01*
X0044402Y0208270D01*
X0044598Y0208599D01*
X0044863Y0208876D01*
X0045182Y0209087D01*
X0045541Y0209222D01*
X0045920Y0209274D01*
X0046321Y0209239D01*
X0046703Y0209115D01*
X0047049Y0208910D01*
X0047340Y0208633D01*
X0047563Y0208298D01*
X0047705Y0207922D01*
X0047760Y0207524D01*
X0047709Y0207131D01*
X0047572Y0206759D01*
X0047355Y0206427D01*
X0047070Y0206151D01*
X0046731Y0205946D01*
X0046355Y0205822D01*
X0045960Y0205784D01*
X0045577Y0205830D01*
X0045213Y0205961D01*
X0044888Y0206169D01*
X0044661Y0206400D02*
X0047327Y0206400D01*
X0047623Y0206898D02*
X0044372Y0206898D01*
X0044263Y0207397D02*
X0047743Y0207397D01*
X0047709Y0207895D02*
X0044283Y0207895D01*
X0044476Y0208394D02*
X0047499Y0208394D01*
X0047067Y0208892D02*
X0044888Y0208892D01*
X0045379Y0205901D02*
X0046596Y0205901D01*
X0059598Y0193599D02*
X0059863Y0193876D01*
X0060182Y0194087D01*
X0060541Y0194222D01*
X0060920Y0194274D01*
X0061321Y0194239D01*
X0061703Y0194115D01*
X0062049Y0193910D01*
X0062340Y0193633D01*
X0062563Y0193298D01*
X0062705Y0192922D01*
X0062760Y0192524D01*
X0062709Y0192131D01*
X0062572Y0191759D01*
X0062355Y0191427D01*
X0062070Y0191151D01*
X0061731Y0190946D01*
X0061355Y0190822D01*
X0060960Y0190784D01*
X0060577Y0190830D01*
X0060213Y0190961D01*
X0059888Y0191169D01*
X0059617Y0191445D01*
X0059414Y0191774D01*
X0059290Y0192139D01*
X0059250Y0192524D01*
X0059284Y0192905D01*
X0059402Y0193270D01*
X0059598Y0193599D01*
X0059503Y0193439D02*
X0062469Y0193439D01*
X0062698Y0192940D02*
X0059295Y0192940D01*
X0059259Y0192442D02*
X0062749Y0192442D01*
X0062640Y0191943D02*
X0059357Y0191943D01*
X0059617Y0191445D02*
X0062367Y0191445D01*
X0061731Y0190946D02*
X0060255Y0190946D01*
X0059955Y0193937D02*
X0062003Y0193937D01*
X0074598Y0183599D02*
X0074863Y0183876D01*
X0075182Y0184087D01*
X0075541Y0184222D01*
X0075920Y0184274D01*
X0076321Y0184239D01*
X0076703Y0184115D01*
X0077049Y0183910D01*
X0077340Y0183633D01*
X0077563Y0183298D01*
X0077705Y0182922D01*
X0077760Y0182524D01*
X0077709Y0182131D01*
X0077572Y0181759D01*
X0077355Y0181427D01*
X0077070Y0181151D01*
X0076731Y0180946D01*
X0076355Y0180822D01*
X0075960Y0180784D01*
X0075577Y0180830D01*
X0075213Y0180961D01*
X0074888Y0181169D01*
X0074617Y0181445D01*
X0074414Y0181774D01*
X0074290Y0182139D01*
X0074250Y0182524D01*
X0074284Y0182905D01*
X0074402Y0183270D01*
X0074598Y0183599D01*
X0074520Y0183468D02*
X0077450Y0183468D01*
X0077687Y0182970D02*
X0074305Y0182970D01*
X0074255Y0182471D02*
X0077753Y0182471D01*
X0077651Y0181973D02*
X0074347Y0181973D01*
X0074599Y0181474D02*
X0077386Y0181474D01*
X0076780Y0180976D02*
X0075190Y0180976D01*
X0075000Y0183967D02*
X0076953Y0183967D01*
X0061459Y0225825D02*
X0061080Y0225774D01*
X0060679Y0225809D01*
X0060297Y0225932D01*
X0059951Y0226137D01*
X0059660Y0226414D01*
X0059437Y0226749D01*
X0059295Y0227125D01*
X0059240Y0227524D01*
X0059291Y0227917D01*
X0059428Y0228288D01*
X0059645Y0228620D01*
X0059930Y0228896D01*
X0060269Y0229101D01*
X0060645Y0229226D01*
X0061040Y0229263D01*
X0061423Y0229217D01*
X0061787Y0229086D01*
X0062112Y0228878D01*
X0062383Y0228602D01*
X0062586Y0228274D01*
X0062710Y0227908D01*
X0062750Y0227524D01*
X0062716Y0227142D01*
X0062598Y0226778D01*
X0062402Y0226449D01*
X0062137Y0226172D01*
X0061818Y0225960D01*
X0061459Y0225825D01*
X0061503Y0225842D02*
X0060576Y0225842D01*
X0059738Y0226340D02*
X0062299Y0226340D01*
X0062618Y0226839D02*
X0059404Y0226839D01*
X0059266Y0227337D02*
X0062733Y0227337D01*
X0062718Y0227836D02*
X0059281Y0227836D01*
X0059458Y0228334D02*
X0062548Y0228334D01*
X0062156Y0228833D02*
X0059865Y0228833D01*
X0052598Y0231778D02*
X0052716Y0232142D01*
X0052750Y0232524D01*
X0052710Y0232908D01*
X0052586Y0233274D01*
X0052383Y0233602D01*
X0052112Y0233878D01*
X0051787Y0234086D01*
X0051423Y0234217D01*
X0051040Y0234263D01*
X0050645Y0234226D01*
X0050269Y0234101D01*
X0049930Y0233896D01*
X0049645Y0233620D01*
X0049428Y0233288D01*
X0049291Y0232917D01*
X0049240Y0232524D01*
X0049295Y0232125D01*
X0049437Y0231749D01*
X0049660Y0231414D01*
X0049951Y0231137D01*
X0050297Y0230932D01*
X0050679Y0230809D01*
X0051080Y0230774D01*
X0051459Y0230825D01*
X0051818Y0230960D01*
X0052137Y0231172D01*
X0052402Y0231449D01*
X0052598Y0231778D01*
X0052613Y0231824D02*
X0049409Y0231824D01*
X0049268Y0232322D02*
X0052732Y0232322D01*
X0052719Y0232821D02*
X0049279Y0232821D01*
X0049449Y0233319D02*
X0052557Y0233319D01*
X0052171Y0233818D02*
X0049849Y0233818D01*
X0049753Y0231325D02*
X0052284Y0231325D01*
X0051464Y0230827D02*
X0050623Y0230827D01*
X0042137Y0241172D02*
X0041818Y0240960D01*
X0041459Y0240825D01*
X0041080Y0240774D01*
X0040679Y0240809D01*
X0040297Y0240932D01*
X0039951Y0241137D01*
X0039660Y0241414D01*
X0039437Y0241749D01*
X0039295Y0242125D01*
X0039240Y0242524D01*
X0039291Y0242917D01*
X0039428Y0243288D01*
X0039645Y0243620D01*
X0039930Y0243896D01*
X0040269Y0244101D01*
X0040645Y0244226D01*
X0041040Y0244263D01*
X0041423Y0244217D01*
X0041787Y0244086D01*
X0042112Y0243878D01*
X0042383Y0243602D01*
X0042586Y0243274D01*
X0042710Y0242908D01*
X0042750Y0242524D01*
X0042716Y0242142D01*
X0042598Y0241778D01*
X0042402Y0241449D01*
X0042137Y0241172D01*
X0042256Y0241296D02*
X0039784Y0241296D01*
X0039420Y0241794D02*
X0042603Y0241794D01*
X0042729Y0242293D02*
X0039272Y0242293D01*
X0039275Y0242791D02*
X0042722Y0242791D01*
X0042576Y0243290D02*
X0039429Y0243290D01*
X0039818Y0243788D02*
X0042200Y0243788D01*
X0041252Y0240797D02*
X0040811Y0240797D01*
X0032137Y0251172D02*
X0031818Y0250960D01*
X0031459Y0250825D01*
X0031080Y0250774D01*
X0030679Y0250809D01*
X0030297Y0250932D01*
X0029951Y0251137D01*
X0029660Y0251414D01*
X0029437Y0251749D01*
X0029295Y0252125D01*
X0029240Y0252524D01*
X0029291Y0252917D01*
X0029428Y0253288D01*
X0029645Y0253620D01*
X0029930Y0253896D01*
X0030269Y0254101D01*
X0030645Y0254226D01*
X0031040Y0254263D01*
X0031423Y0254217D01*
X0031787Y0254086D01*
X0032112Y0253878D01*
X0032383Y0253602D01*
X0032586Y0253274D01*
X0032710Y0252908D01*
X0032750Y0252524D01*
X0032716Y0252142D01*
X0032598Y0251778D01*
X0032402Y0251449D01*
X0032137Y0251172D01*
X0032227Y0251266D02*
X0029816Y0251266D01*
X0029432Y0251764D02*
X0032590Y0251764D01*
X0032727Y0252263D02*
X0029276Y0252263D01*
X0029271Y0252761D02*
X0032725Y0252761D01*
X0032590Y0253260D02*
X0029418Y0253260D01*
X0029788Y0253758D02*
X0032230Y0253758D01*
X0031093Y0254257D02*
X0030972Y0254257D01*
X0040267Y0270962D02*
X0039921Y0271167D01*
X0039630Y0271444D01*
X0039407Y0271779D01*
X0039265Y0272155D01*
X0039210Y0272554D01*
X0039261Y0272947D01*
X0039398Y0273318D01*
X0039615Y0273650D01*
X0039900Y0273926D01*
X0040239Y0274131D01*
X0040615Y0274256D01*
X0041010Y0274293D01*
X0041393Y0274247D01*
X0041757Y0274116D01*
X0042082Y0273908D01*
X0042353Y0273632D01*
X0042556Y0273303D01*
X0042680Y0272938D01*
X0042720Y0272554D01*
X0042686Y0272172D01*
X0042568Y0271808D01*
X0042372Y0271479D01*
X0042108Y0271201D01*
X0041788Y0270990D01*
X0041430Y0270855D01*
X0041050Y0270804D01*
X0040649Y0270839D01*
X0040267Y0270962D01*
X0039880Y0271206D02*
X0042112Y0271206D01*
X0042507Y0271705D02*
X0039457Y0271705D01*
X0039259Y0272203D02*
X0042689Y0272203D01*
X0042705Y0272702D02*
X0039229Y0272702D01*
X0039355Y0273200D02*
X0042591Y0273200D01*
X0042288Y0273699D02*
X0039665Y0273699D01*
X0040440Y0274197D02*
X0041531Y0274197D01*
X0032372Y0281479D02*
X0032108Y0281201D01*
X0031788Y0280990D01*
X0031430Y0280855D01*
X0031050Y0280804D01*
X0030649Y0280839D01*
X0030267Y0280962D01*
X0029921Y0281167D01*
X0029630Y0281444D01*
X0029407Y0281779D01*
X0029265Y0282155D01*
X0029210Y0282554D01*
X0029261Y0282947D01*
X0029398Y0283318D01*
X0029615Y0283650D01*
X0029900Y0283926D01*
X0030239Y0284131D01*
X0030615Y0284256D01*
X0031010Y0284293D01*
X0031393Y0284247D01*
X0031757Y0284116D01*
X0032082Y0283908D01*
X0032353Y0283632D01*
X0032556Y0283303D01*
X0032680Y0282938D01*
X0032720Y0282554D01*
X0032686Y0282172D01*
X0032568Y0281808D01*
X0032372Y0281479D01*
X0032489Y0281675D02*
X0029477Y0281675D01*
X0029263Y0282174D02*
X0032686Y0282174D01*
X0032708Y0282672D02*
X0029226Y0282672D01*
X0029344Y0283171D02*
X0032601Y0283171D01*
X0032317Y0283669D02*
X0029634Y0283669D01*
X0030350Y0284168D02*
X0031614Y0284168D01*
X0032070Y0281177D02*
X0029911Y0281177D01*
X0049615Y0263650D02*
X0049900Y0263926D01*
X0050239Y0264131D01*
X0050615Y0264256D01*
X0051010Y0264293D01*
X0051393Y0264247D01*
X0051757Y0264116D01*
X0052082Y0263908D01*
X0052353Y0263632D01*
X0052556Y0263303D01*
X0052680Y0262938D01*
X0052720Y0262554D01*
X0052686Y0262172D01*
X0052568Y0261808D01*
X0052372Y0261479D01*
X0052108Y0261201D01*
X0051788Y0260990D01*
X0051430Y0260855D01*
X0051050Y0260804D01*
X0050649Y0260839D01*
X0050267Y0260962D01*
X0049921Y0261167D01*
X0049630Y0261444D01*
X0049407Y0261779D01*
X0049265Y0262155D01*
X0049210Y0262554D01*
X0049261Y0262947D01*
X0049398Y0263318D01*
X0049615Y0263650D01*
X0049696Y0263729D02*
X0052258Y0263729D01*
X0052581Y0263230D02*
X0049366Y0263230D01*
X0049233Y0262732D02*
X0052702Y0262732D01*
X0052692Y0262233D02*
X0049254Y0262233D01*
X0049437Y0261735D02*
X0052525Y0261735D01*
X0052141Y0261236D02*
X0049849Y0261236D01*
X0050529Y0264227D02*
X0051448Y0264227D01*
X0059615Y0258650D02*
X0059398Y0258318D01*
X0059261Y0257947D01*
X0059210Y0257554D01*
X0059265Y0257155D01*
X0059407Y0256779D01*
X0059630Y0256444D01*
X0059921Y0256167D01*
X0060267Y0255962D01*
X0060649Y0255839D01*
X0061050Y0255804D01*
X0061430Y0255855D01*
X0061788Y0255990D01*
X0062108Y0256201D01*
X0062372Y0256479D01*
X0062568Y0256808D01*
X0062686Y0257172D01*
X0062720Y0257554D01*
X0062680Y0257938D01*
X0062556Y0258303D01*
X0062353Y0258632D01*
X0062082Y0258908D01*
X0061757Y0259116D01*
X0061393Y0259247D01*
X0061010Y0259293D01*
X0060615Y0259256D01*
X0060239Y0259131D01*
X0059900Y0258926D01*
X0059615Y0258650D01*
X0059711Y0258744D02*
X0062244Y0258744D01*
X0062576Y0258245D02*
X0059371Y0258245D01*
X0059235Y0257747D02*
X0062700Y0257747D01*
X0062693Y0257248D02*
X0059252Y0257248D01*
X0059427Y0256750D02*
X0062534Y0256750D01*
X0062155Y0256251D02*
X0059833Y0256251D01*
X0060574Y0259242D02*
X0061407Y0259242D01*
X0032049Y0218910D02*
X0032340Y0218633D01*
X0032563Y0218298D01*
X0032705Y0217922D01*
X0032760Y0217524D01*
X0032709Y0217131D01*
X0032572Y0216759D01*
X0032355Y0216427D01*
X0032070Y0216151D01*
X0031731Y0215946D01*
X0031355Y0215822D01*
X0030960Y0215784D01*
X0030577Y0215830D01*
X0030213Y0215961D01*
X0029888Y0216169D01*
X0029617Y0216445D01*
X0029414Y0216774D01*
X0029290Y0217139D01*
X0029250Y0217524D01*
X0029284Y0217905D01*
X0029402Y0218270D01*
X0029598Y0218599D01*
X0029863Y0218876D01*
X0030182Y0219087D01*
X0030541Y0219222D01*
X0030920Y0219274D01*
X0031321Y0219239D01*
X0031703Y0219115D01*
X0032049Y0218910D01*
X0032099Y0218863D02*
X0029850Y0218863D01*
X0029458Y0218364D02*
X0032519Y0218364D01*
X0032713Y0217866D02*
X0029280Y0217866D01*
X0029266Y0217367D02*
X0032740Y0217367D01*
X0032612Y0216869D02*
X0029382Y0216869D01*
X0029691Y0216370D02*
X0032296Y0216370D01*
X0031506Y0215872D02*
X0030462Y0215872D01*
D12*
X0083091Y0217524D02*
X0088909Y0217524D01*
X0088909Y0207524D02*
X0083091Y0207524D01*
X0083091Y0197524D02*
X0088909Y0197524D01*
X0088909Y0187524D02*
X0083091Y0187524D01*
X0113091Y0187524D02*
X0118909Y0187524D01*
X0118909Y0197524D02*
X0113091Y0197524D01*
X0113091Y0207524D02*
X0118909Y0207524D01*
X0118909Y0217524D02*
X0113091Y0217524D01*
X0113091Y0227524D02*
X0118909Y0227524D01*
X0118909Y0237524D02*
X0113091Y0237524D01*
X0113091Y0247524D02*
X0118909Y0247524D01*
X0118909Y0257524D02*
X0113091Y0257524D01*
X0088909Y0257524D02*
X0083091Y0257524D01*
X0083091Y0247524D02*
X0088909Y0247524D01*
X0088909Y0237524D02*
X0083091Y0237524D01*
X0083091Y0227524D02*
X0088909Y0227524D01*
D13*
X0181000Y0227524D03*
X0181000Y0237524D03*
X0181000Y0247524D03*
X0181000Y0257524D03*
X0181000Y0267524D03*
X0181000Y0277524D03*
X0181000Y0217524D03*
X0181000Y0207524D03*
X0181000Y0197524D03*
X0181000Y0187524D03*
X0181000Y0142524D03*
X0181000Y0132524D03*
X0181000Y0122524D03*
X0181000Y0112524D03*
X0181000Y0102524D03*
X0181000Y0092524D03*
D14*
X0037142Y0080122D03*
X0037142Y0152957D03*
X0131000Y0187524D03*
X0186000Y0152524D03*
X0186000Y0082524D03*
X0131000Y0277524D03*
M02*
