<?xml version="1.0" encoding="UTF-8" standalone="no"?>
<svg width="219px" height="102px" viewBox="0 0 219 102" version="1.1" xmlns="http://www.w3.org/2000/svg" xmlns:xlink="http://www.w3.org/1999/xlink" xmlns:sketch="http://www.bohemiancoding.com/sketch/ns">
    <!-- Generator: Sketch 3.3.2 (12043) - http://www.bohemiancoding.com/sketch -->
    <title>Logo</title>
    <desc>Created with Sketch.</desc>
    <defs></defs>
    <g id="Page-1" stroke="none" stroke-width="1" fill="none" fill-rule="evenodd" sketch:type="MSPage">
        <g id="Logo" sketch:type="MSArtboardGroup" fill="#0B3B85">
            <g id="design-+-UNIVERSITY-OF-DELHI-+-Path-758-Copy-4" sketch:type="MSLayerGroup">
                <text id="design" sketch:type="MSTextLayer" font-family="P22UndergroundBook" font-size="20.5237711" font-weight="313" line-spacing="14.0100002">
                    <tspan x="113.006506" y="40.9018884">design</tspan>
                    <tspan x="113.006506" y="58.9118886">innovation</tspan>
                    <tspan x="113.006506" y="76.9218889">centre</tspan>
                </text>
                <text id="UNIVERSITY-OF-DELHI" sketch:type="MSTextLayer" font-family="P22UndergroundBookPCp" font-size="9.85141011" font-weight="313" letter-spacing="0.164190179">
                    <tspan x="113.006506" y="99.3989067">UNIVERSITY OF DELHI</tspan>
                </text>
                <path d="M83.4691749,44.9778127 C82.8860605,46.0601849 81.8451822,46.8594708 80.6057446,47.1164658 C80.2248856,47.2522919 79.9170295,47.6904631 79.8945759,48.1499461 L79.6867947,52.4019083 C79.6617622,52.9141652 80.007924,53.5222172 80.4104112,53.7339591 L80.4010816,53.7596754 C80.6698319,53.9750039 80.8848909,54.2545699 81.0229779,54.5750929 L81.0229779,54.5750929 L81.0373971,54.5750929 C81.1174349,54.8479317 81.5974313,55.0800385 82.1060181,55.0934264 L91.5460736,55.3419241 C91.9878399,55.3535531 92.5153671,55.0933311 92.7427675,54.8630966 C92.930672,54.5684557 93.1629276,54.3048474 93.4301279,54.081678 C93.6220906,53.7889159 93.640382,53.31836 93.4544903,52.9304276 L91.343798,48.5256799 C91.1774722,48.1785792 90.810314,47.8749115 90.4307839,47.736112 C89.4568776,47.694863 88.6533762,46.995063 88.4541493,46.0705815 L88.4386777,46.1173559 C88.3947293,45.8001286 87.948547,45.4464284 87.4450901,45.328047 L84.6467942,44.6700639 C84.211976,44.567822 83.6947582,44.7592199 83.4691749,44.9778127 L83.4691749,44.9778127 Z M83.9701556,42.8241725 C83.954815,42.3843387 83.8723292,41.9615757 83.7326326,41.565818 L83.7327822,41.565489 L83.7317668,41.5633677 C83.6968482,41.4646389 83.6583685,41.367593 83.6164819,41.2723843 C83.5130006,40.8456826 83.677494,40.3407189 84.0376201,40.0782161 L88.2064143,37.0395024 C88.5447456,36.7928862 89.0225968,36.7157516 89.3804314,36.8281169 C89.4707262,36.8861028 89.5657187,36.9374101 89.6647113,36.9813411 C89.7654187,37.0685109 89.9565926,37.2834192 89.9628998,37.6625979 L90.0452302,42.6121359 C90.0536656,43.1192523 89.8562458,43.6201259 89.6039666,43.7119839 L89.6105542,43.713537 C89.4352314,43.7973655 89.2732576,43.9046309 89.1286888,44.0312772 L89.1363028,44.0082582 C88.9305809,44.2942568 88.2747101,44.5366667 87.7718522,44.4100097 L84.870573,43.6792519 C84.409639,43.5631544 84.0354076,43.1962501 83.9701556,42.8241725 L83.9701556,42.8241725 Z M82.074725,39.4444139 C82.0433893,39.4236679 82.0117613,39.403328 81.9798484,39.3834017 C81.9773686,39.3815793 81.9748992,39.3797444 81.9724401,39.377897 L81.9724382,39.3787854 C81.3895761,39.0165169 80.7121557,38.7920284 79.9856995,38.7508426 C79.5779848,38.6232388 79.221144,38.2564141 79.1423659,37.83951 L77.3878473,28.5543734 C77.3063534,28.123097 77.5257452,27.6425934 77.8940449,27.3932743 C78.3821145,27.1954778 78.8399823,26.9387106 79.2588103,26.6318104 C79.6467275,26.4840923 80.1313735,26.5440815 80.4461066,26.8113375 L88.0556636,33.2730021 C88.3640178,33.5348414 88.5572689,33.9433353 88.5509994,34.2775602 C88.4578197,34.5160375 88.406675,34.7755699 88.406675,35.0470478 C88.406675,35.0551808 88.4067209,35.063303 88.4068125,35.0714142 C88.2790013,35.449021 88.0402843,35.818723 87.7668905,36.0266907 L83.4102146,39.3407661 C83.0359466,39.6254677 82.4646766,39.6630301 82.074725,39.4444139 L82.074725,39.4444139 Z M80.8990477,24.8651487 C80.9112675,24.8455704 80.9233835,24.8259207 80.935395,24.8062003 C80.9358673,24.8055565 80.9363415,24.8049139 80.9368175,24.8042726 L80.936742,24.8039878 C81.3130778,24.1855541 81.5866353,23.4976865 81.7336954,22.7641042 C81.87577,22.5324033 82.3128584,22.2367049 82.7563804,22.254225 L89.5723321,22.5234707 C90.0195753,22.5411378 90.4442097,22.8033981 90.5934403,23.1352008 C90.7667156,24.0658877 91.2446994,24.8894456 91.919959,25.498442 L91.9165003,25.4991085 C91.920611,25.5014993 91.9247044,25.5039218 91.9287805,25.5063755 C92.0053745,25.5750671 92.0844879,25.641006 92.1659651,25.7040368 C92.4381098,26.006406 92.5638642,26.4678402 92.4476181,26.8566225 L90.9062874,32.0115635 C90.7972623,32.3761954 90.4897905,32.7424191 90.1373928,32.9667359 C90.0478983,32.983169 89.9603743,33.005235 89.8752019,33.0325527 C89.459518,33.0145663 89.0087607,32.858737 88.732475,32.6116786 L81.259218,25.9289924 C80.9054626,25.6126596 80.7523936,25.1513909 80.8990477,24.8651487 L80.8990477,24.8651487 Z M81.7548716,20.3666376 C81.2164834,17.4078319 78.6262762,15.1644987 75.5121104,15.1644987 C75.1498323,15.1644987 74.794645,15.1948582 74.448954,15.2531718 L74.4548137,15.2342408 L74.2498326,15.2900509 C74.150108,15.3101794 74.0512307,15.3326462 73.9532603,15.3573916 C73.487451,15.409827 72.9493974,15.1812743 72.6933035,14.7995254 L67.1210703,6.49321744 C66.8376692,6.07076265 66.8683632,5.49357462 67.1964042,5.21413418 L67.1846356,5.21241071 C67.6164113,4.75248873 67.9210804,4.17182839 68.0425677,3.52650502 L68.0425677,3.52650502 C70.1282776,4.22682116 72.4418382,5.01830339 74.070312,5.59136368 L76.0135582,6.27519252 C78.4454889,7.13098949 81.9832502,9.20152033 83.9148728,10.8996779 L87.5116677,14.061747 C88.9096536,15.2907657 90.6465024,17.2979045 91.9776225,19.1626099 C91.4930508,19.5839773 91.1053104,20.1138171 90.8522144,20.7143162 C90.8520315,20.7145419 90.8519168,20.7149187 90.8518019,20.7152954 C90.831091,20.7644691 90.8112829,20.8141163 90.7923984,20.8642163 C90.5908583,21.2708478 90.1100394,21.5668106 89.6477059,21.5398269 L82.7654134,21.1381468 C82.322752,21.1123112 81.9068251,20.7836536 81.7548716,20.3666376 L81.7548716,20.3666376 Z M94.493646,26.5786186 C94.5791601,26.5837738 94.6653594,26.5863886 94.7521695,26.5863886 C95.252923,26.5863886 95.7333552,26.4993825 96.1791734,26.339663 L96.1791734,26.339663 L98.5593769,30.5766746 C99.2850398,31.8684306 100.025237,33.7129955 100.586334,35.5323032 C100.160021,35.6381382 99.7847787,35.8732903 99.5046495,36.1937169 C99.2528006,36.3853732 98.7226424,36.5350672 98.2992141,36.4188998 L93.5138409,35.1060355 C93.157296,35.0082176 92.7815528,34.7247629 92.5345228,34.3947872 C92.4207638,34.0435083 92.2175971,33.7324728 91.9518592,33.4885171 C91.7345313,33.127954 91.6513829,32.6356113 91.7736316,32.2570803 L93.3579822,27.3512953 C93.5159662,26.8621135 94.025192,26.5205324 94.4948556,26.5899446 L94.493646,26.5786186 L94.493646,26.5786186 Z M100.143251,39.4733517 C100.429984,39.6185785 100.754268,39.7004104 101.097664,39.7004104 C101.238038,39.7004104 101.375219,39.686736 101.507947,39.6606466 L101.507947,39.6606466 L102.175329,44.6767033 C102.514476,47.2257428 101.510554,50.9425585 99.9325284,52.9748662 L98.4594066,54.8720708 C97.8660244,53.9351514 96.8251302,53.3097254 95.6372411,53.2963101 L95.6426128,53.2729081 L95.6190701,53.2759093 C95.0996411,53.3421263 94.5175375,53.0128698 94.3045366,52.5423261 L92.3021726,48.1188724 C92.1107584,47.6960163 92.085703,47.1647127 92.2327586,46.8667804 C92.4870042,46.5176824 92.6370046,46.0877944 92.6370046,45.6228719 C92.6370046,45.4672317 92.6201944,45.3155178 92.5882904,45.1694468 L92.6112793,45.1485018 C92.5434212,45.0743659 92.5930145,44.5085106 93.0046276,44.1933489 L98.8648931,39.7062917 C99.2752326,39.3921051 99.8488465,39.2976295 100.143251,39.4974527 L100.143251,39.4733517 L100.143251,39.4733517 Z M91.4920481,43.7428495 C91.4016761,43.6961174 91.3075037,43.6557102 91.2101165,43.6222135 C91.1007777,43.446634 90.9118479,43.0909006 90.9081747,42.7242322 L90.861516,38.0667191 C90.8569915,37.6150836 91.0550731,37.1860269 91.3250736,37.004365 C91.627141,36.880272 91.894145,36.6882877 92.1070952,36.4474024 L92.1947307,36.3807732 C92.2014805,36.351779 92.2138117,36.3223749 92.2310872,36.2932482 C92.2444877,36.2748999 92.2575999,36.2563277 92.2704172,36.2375382 C92.43807,36.0332452 92.8389592,35.8659857 93.2380883,35.9893909 L98.5890832,37.6438452 C99.0737548,37.7936991 99.1446047,38.1727219 98.7340961,38.4863245 L92.4687078,43.272684 C92.081136,43.5687643 91.6585401,43.770353 91.4920481,43.7428495 L91.4920481,43.7428495 Z M79.0274279,63.8827532 C81.529811,64.7330488 83.3302795,67.1024202 83.3302795,69.8923136 C83.3302795,73.3968333 80.4893049,76.237808 76.9847851,76.237808 C75.6854335,76.237808 74.4772971,75.8472696 73.4713542,75.1771714 L73.4713542,75.1771714 C73.0604244,75.0727675 72.576848,75.1919777 72.2977411,75.4852364 L69.4907125,78.4345928 C69.2133989,78.7259674 69.0634457,79.2238664 69.0682805,79.5857312 C69.1321582,79.7874293 69.166616,80.0022133 69.166616,80.2250452 C69.166616,80.3979447 69.1458707,80.5659989 69.1067335,80.7268545 L69.1067335,80.7749663 C68.9232063,81.1313755 69.0452546,81.7383959 69.3738502,82.124341 L74.6703315,88.3452124 C74.9149572,88.6325325 75.3457638,88.8142742 75.7505421,88.8312924 C76.132946,88.6814451 76.5492579,88.599175 76.9847851,88.599175 C77.4697119,88.599175 77.9308174,88.7011665 78.3478204,88.8848685 L78.3478204,88.8848685 L78.4575546,86.4419084 C78.5731198,83.8691374 79.8669013,80.0735269 81.344961,77.9675028 L86.3620706,70.818838 C87.8411759,68.711324 90.3214068,65.352841 91.8974951,63.3230278 L94.5548197,59.9007116 L94.5548197,59.9007116 C93.4055194,59.5285993 92.5254215,58.5583379 92.2816346,57.357036 C92.1362482,56.9427382 91.7000715,56.6079627 91.2494775,56.5807467 L82.0353415,56.0242122 C81.6083826,55.9984239 81.1269977,56.2424298 80.9233354,56.44848 C80.6528548,56.928267 80.2005212,57.2918863 79.6598606,57.4458121 C79.3914649,57.5772332 79.1570964,57.9805804 79.109359,58.4273223 L78.6397158,62.8223979 C78.5928424,63.2610548 78.8496233,63.7275372 79.0274279,63.8827532 L79.0274279,63.8827532 Z M76.8885807,63.5475336 C75.635669,63.5661545 74.4707387,63.9478996 73.4943484,64.5922103 C73.0854668,64.7114675 72.5996253,64.6062707 72.3107757,64.3125473 L68.1398727,60.0712688 C67.81779,59.7437516 67.7563117,59.1986225 67.9682367,58.79809 C68.0245846,58.7200923 68.0792031,58.6407628 68.1320361,58.5601578 L68.2960226,58.3423288 L68.2708384,58.3385745 C68.646509,57.7104573 68.9166683,57.0119674 69.0568347,56.2675864 C69.1564373,55.97011 69.6015441,55.7303822 70.081858,55.7211542 L76.0805812,55.6059039 C76.5573676,55.5967437 76.9890883,55.9499295 77.0526035,56.0178023 C77.1862041,56.4649053 77.4637013,56.8499079 77.8313483,57.1190633 L77.830696,57.129826 C77.9256997,57.161214 78.2741253,57.7079692 78.2133067,58.2203306 L77.6872324,62.6522033 C77.6361819,63.0822742 77.3002679,63.4408055 76.8885807,63.5475336 L76.8885807,63.5475336 Z M78.2584524,53.4613583 C77.7222356,53.6874236 77.2987253,54.1282185 77.0956304,54.6760342 C76.9264356,54.8286056 76.5363604,54.9261302 76.1229518,54.9062501 L70.0948316,54.6163691 C69.6466154,54.5948152 69.2144298,54.2645825 69.0467239,53.8522596 C68.6624012,51.902129 67.3846345,50.2727898 65.6574981,49.4083163 C65.3539173,49.1652961 65.2189092,48.6945047 65.3593212,48.2566552 L68.0826364,39.7644896 C68.2410398,39.2705373 68.7817644,38.8701098 69.1571656,38.8701098 L69.1449806,38.843366 C69.2803897,38.8018509 69.4100157,38.747111 69.532352,38.6806528 L69.53316,38.6880655 C69.5447732,38.6782185 69.5572235,38.6686726 69.5704533,38.659442 C69.5956671,38.6450627 69.6205565,38.6301796 69.6451077,38.6148065 C69.9556557,38.4548028 70.5314718,38.4271532 70.9306064,38.6412857 L75.0243551,40.8375494 C75.4026057,41.0404778 75.6611093,41.4405181 75.6759408,41.8044589 C75.5692565,42.1759851 75.5121104,42.5684664 75.5121104,42.9742949 C75.5121104,44.7426616 76.5971515,46.2576033 78.1377885,46.8896748 C78.5434735,47.1216711 78.8454476,47.6208358 78.8374612,48.0820956 L78.762877,52.3897573 C78.7556702,52.8059923 78.5440323,53.2378362 78.2584524,53.4613583 L78.2584524,53.4613583 L78.2584524,53.4613583 Z M70.6378531,36.7420692 C70.6183761,36.2096821 70.4021371,35.7275218 70.0596994,35.3661513 C69.9654216,35.0056939 69.9787223,34.5977516 70.1167501,34.2934897 L72.864581,28.236303 C73.0421657,27.8448439 73.4091705,27.5989027 73.75267,27.6083943 C74.2576407,27.7538208 74.7884619,27.8382248 75.3366355,27.8531081 C75.7673169,27.9414163 76.1579593,28.3051524 76.2492634,28.7404456 L78.1952604,38.0180015 C78.3001018,38.5178335 78.1372019,39.0443465 77.8306957,39.1905799 L77.8038631,39.2132996 C77.4203739,39.4113667 77.0710649,39.6663646 76.7671152,39.9671145 C76.4012488,40.0889089 75.9703084,40.0715305 75.6533616,39.8989038 L71.417131,37.5916186 C71.115213,37.4271773 70.8215778,37.0961396 70.6378531,36.7420692 L70.6378531,36.7420692 L70.6378531,36.7420692 Z M68.356792,34.7121413 C67.6841256,34.7647866 67.0998492,35.1321069 66.7510665,35.6669981 C66.4446086,35.9528593 65.981898,36.1903541 65.5900881,36.2248849 L59.168593,36.7908208 C58.7186589,36.8304741 58.2810039,36.6099111 58.1191792,36.2802854 C58.079724,36.1584965 58.0348952,36.0391269 57.9849723,35.9224561 L57.9849723,35.9224561 C57.8674371,35.484204 58.028563,34.9612492 58.3904855,34.6847976 L69.7448257,26.0118772 C70.1067867,25.7353963 70.6109568,25.7115271 70.9575092,25.9282467 C71.1438814,26.120334 71.3422981,26.3006694 71.5515409,26.4680346 C71.8204239,26.8135764 71.9105155,27.3186697 71.7521136,27.7102892 L69.2593671,33.8731474 C69.0914895,34.2881941 68.7122884,34.6292975 68.356792,34.7121413 L68.356792,34.7121413 L68.356792,34.7121413 Z M71.8731472,73.652866 C71.0976054,72.600452 70.6392907,71.2999054 70.6392907,69.8923136 C70.6392907,68.7235608 70.9552678,67.6286084 71.5064564,66.688222 C71.6027555,66.2767159 71.5102873,65.773184 71.245756,65.4578141 L67.2924759,60.7447792 C67.017535,60.4169992 66.5842643,60.3106924 66.2220915,60.44423 L66.2220915,60.44423 C65.2391011,61.0694754 64.072407,61.4316543 62.8211215,61.4316543 C60.7111143,61.4316543 58.8416437,60.4017943 57.6879471,58.8173113 C57.3683476,58.5225585 56.86072,58.4471433 56.4757539,58.6540751 L49.3791542,62.4687291 C48.9719906,62.6875928 48.6760695,63.2044715 48.640507,63.4789027 C48.6412184,63.5014542 48.6415767,63.5240948 48.6415767,63.5468191 C48.6415767,63.8323214 48.5850113,64.1046121 48.4824763,64.3530956 L52.1585259,65.0157766 C54.6899333,65.4721131 58.5319572,66.9259007 60.7311022,68.2575588 L63.304455,69.8158126 C65.5075508,71.149863 67.2731453,74.3204431 67.2480519,76.8943024 L67.2361234,78.1178307 L67.2361234,78.1178307 C67.3569396,78.1282803 67.4748504,78.1488865 67.5889976,78.1787909 L67.5888752,78.1616045 C67.8679804,78.2939214 68.3805767,78.1062791 68.7451565,77.7307882 L71.6091892,74.7810405 C71.8880296,74.493855 71.9824991,74.0410703 71.8731472,73.652866 L71.8731472,73.652866 L71.8731472,73.652866 Z M67.6821755,82.2445746 C67.526723,82.2930734 67.3635682,82.3241182 67.1950048,82.3354153 L67.1807,83.8026672 C67.1555927,86.3779587 67.7618157,90.4576701 68.5331554,92.9099292 L68.4535875,92.6569651 C69.2256353,95.1114755 71.8562838,97.6601099 74.3459182,98.3541305 L73.3838296,98.0859348 C75.6935864,98.729812 77.6774034,97.4568126 78.0351089,95.2015517 C77.7044631,95.3093967 77.3514331,95.3677023 76.9847851,95.3677023 C75.1157079,95.3677023 73.6005214,93.8525159 73.6005214,91.9834386 C73.6005214,91.4406412 73.7283085,90.9276901 73.9554399,90.4730282 C74.0426864,90.0484702 73.9491849,89.5445652 73.7025718,89.2290492 L68.6644253,82.7832618 C68.423208,82.4746492 67.9794471,82.2846407 67.6821755,82.2445746 L67.6821755,82.2445746 L67.6821755,82.2445746 Z M56.569681,34.1546344 C56.147426,33.8493781 55.6665774,33.6201662 55.1472166,33.4870801 L55.1472166,33.4870801 C54.8795915,33.345568 54.5551698,32.8906954 54.5485477,32.4306551 L54.4782807,27.5491713 C54.4708354,27.0319441 54.8654132,26.5599496 55.3596603,26.4994969 L55.3655403,26.4914661 C58.5657555,26.0091055 61.1785935,23.7342297 62.1487739,20.7221192 L62.1671399,20.7077743 L62.2148701,20.5188162 C62.3391233,20.0269123 62.8544059,19.6838666 63.3641739,19.7589841 L68.2579996,20.4801192 C68.7091337,20.5465966 69.0956678,20.9210948 69.1686445,21.3479562 C69.1672948,21.4018046 69.166616,21.4558196 69.166616,21.5099931 C69.166616,22.2551291 69.2950504,22.9702676 69.5309894,23.6344788 C69.5539038,24.0454634 69.3815207,24.4946493 69.0725742,24.7454959 L57.7331161,33.9524757 C57.4015043,34.2217252 56.9197857,34.2978277 56.569681,34.1546344 L56.569681,34.1546344 L56.569681,34.1546344 Z M58.2487363,38.3853003 C58.0739492,39.298437 57.6055963,40.1073106 56.9456756,40.7099235 C56.7880411,41.018408 56.8003766,41.4766714 57.0021661,41.8503132 L60.4270062,48.1918903 C60.6731293,48.647622 61.2792873,48.925413 61.7751776,48.8136433 L62.114525,48.737157 L62.109166,48.7801599 C62.3428846,48.7540654 62.5804382,48.7406655 62.8211215,48.7406655 C62.89469,48.7406655 62.9679659,48.7419175 63.0409294,48.7444013 C63.4635436,48.6339671 63.8697361,48.2997733 64.0185595,47.9046511 L67.1602201,39.5636288 C67.3029313,39.1847344 67.2697096,38.7231461 67.103371,38.3877697 C66.8502557,38.1581365 66.6530162,37.8680228 66.5344689,37.5402451 C66.3026835,37.345744 65.880405,37.2259569 65.4702948,37.2582069 L59.2371599,37.7483642 C58.8261684,37.7806835 58.4273012,38.0750559 58.2487363,38.3853003 L58.2487363,38.3853003 L58.2487363,38.3853003 Z M52.9302975,33.5169774 C52.3200573,33.6911978 51.7661675,33.9990131 51.3022784,34.4067729 C51.0274979,34.5378142 50.4699858,34.5484751 50.0858511,34.3122068 L46.2926186,31.9791175 C45.9289274,31.7554233 45.6650753,31.3575567 45.624548,31.0103929 C45.6303379,30.9466101 45.6332962,30.8820096 45.6332962,30.8167182 C45.6332962,30.4824722 45.5557672,30.166334 45.4177112,29.8853057 L45.4177112,29.8853057 L45.4210645,29.884538 C45.4149657,29.8763141 45.4091713,29.8672148 45.4036936,29.8572992 C45.4010333,29.8520811 45.3983519,29.8468756 45.3956496,29.8416827 C45.2844602,29.6103872 45.323452,29.0132605 45.6352717,28.6442998 L48.2927739,25.49981 C48.5921923,25.1455232 49.1017199,25.0474506 49.5063594,25.2358538 C50.4128986,25.8219773 51.4386769,26.2394464 52.5392946,26.4438613 C52.9147993,26.6472331 53.2015011,27.052929 53.2309755,27.4616527 L53.59068,32.449693 C53.622395,32.8894858 53.3381933,33.3340579 52.9302975,33.5169774 L52.9302975,33.5169774 L52.9302975,33.5169774 Z M65.1223324,6.25676296 C64.9893788,6.27263878 64.8540578,6.2808065 64.7168292,6.2808065 C64.405532,6.2808065 64.1040514,6.23877624 63.8177528,6.16008092 C63.4053762,6.15282434 62.9438757,6.37299474 62.697193,6.71907384 L59.8604858,10.6987831 C59.5857667,11.0841955 59.621089,11.6364116 59.9122569,11.9832178 C61.4297457,13.421096 62.414793,15.4152922 62.5408637,17.6392712 L62.5421362,17.6398407 C62.5477319,18.1260401 62.9669994,18.5756803 63.476937,18.6439182 L68.590872,19.3282454 C69.003824,19.3835051 69.4680758,19.1839197 69.7450891,18.8592853 C70.1150518,18.0557022 70.6480302,17.3426657 71.3016475,16.7625525 C71.6186752,16.4194817 71.6812931,15.8586582 71.4362192,15.4595459 L66.1859958,6.90935557 C65.9722673,6.56129056 65.5272796,6.30890047 65.1223324,6.25676296 L65.1223324,6.25676296 L65.1223324,6.25676296 Z M62.0216834,4.94365436 C61.589265,4.37522632 61.3325655,3.66586226 61.3325655,2.89654281 C61.3325655,2.37100265 61.4523563,1.87344112 61.6661225,1.42967363 L59.5811031,0.748950078 C57.1313226,-0.0508617554 53.112278,-0.240783823 50.5877956,0.328472462 L47.5561472,1.01209174 C47.4970427,1.02541946 47.4370518,1.03875802 47.3762156,1.05210159 C47.6434373,1.5362743 47.7955108,2.09289098 47.7955108,2.68502633 C47.7955108,3.47193815 47.5269369,4.19612119 47.0764533,4.77091133 L47.0764533,4.77091133 C46.9190022,5.13723001 46.9346439,5.60498544 47.1463016,5.9397749 L49.6245536,9.85974816 C49.8538346,10.2224132 50.3326121,10.4187943 50.7644428,10.3453801 C51.7863164,9.90750974 52.9118235,9.66507019 54.0939554,9.66507019 C55.2142818,9.66507019 56.2837497,9.88282147 57.2623447,10.2783098 L57.2623052,10.2768111 L57.282626,10.286537 C57.3628637,10.3192075 57.442487,10.3530741 57.5214738,10.3881146 C57.96657,10.5242026 58.5108791,10.368368 58.7996575,10.0010369 L61.8633237,6.1040011 C62.1122465,5.78736698 62.1638316,5.32079201 62.0216834,4.94365436 L62.0216834,4.94365436 L62.0216834,4.94365436 Z M43.9254395,28.7407348 C43.7936374,28.7150243 43.6574575,28.7015534 43.5181314,28.7015534 C43.463429,28.7015534 43.4092115,28.70363 43.3555536,28.7077086 L43.3563653,28.6983592 C43.0953463,28.7592834 42.693907,28.4288541 42.4641887,27.9692545 L37.5975235,18.2324726 C37.4393376,17.9159886 37.4202111,17.4828237 37.521258,17.1105657 C37.8524383,16.7727683 38.1133592,16.3658342 38.2803681,15.9134159 C38.5793646,15.6924149 38.9814747,15.593648 39.3192519,15.6823625 L39.3294094,15.6850303 C41.2370427,15.6850303 44.8278602,17.047503 44.8278602,17.047503 C45.1894498,17.1770317 45.5037465,17.5351495 45.6356513,17.9241146 C45.6340841,17.9911297 45.6332962,18.0583375 45.6332962,18.1257294 C45.6332962,20.1173544 46.3214519,21.948252 47.4729594,23.3936183 C47.6526972,23.7804352 47.6221583,24.2906526 47.369062,24.6342522 L44.8272043,28.0850398 C44.5682292,28.4366205 44.1928721,28.703871 43.9254395,28.7407348 L43.9254395,28.7407348 L43.9254395,28.7407348 Z M16.9392912,8.78062306 C16.5673278,8.62384765 16.2495869,8.36374979 16.0220158,8.03627693 L16.0220158,8.03627693 C14.7023819,8.74057092 13.4410959,9.48538728 12.4912611,10.1387633 L8.34167727,12.9931949 C8.7727573,13.5080434 9.05352717,14.1530408 9.11648649,14.8606867 L9.11648649,14.8606867 C9.21504192,15.2529614 9.57831147,15.6340017 10.0064301,15.7627933 L15.9652541,17.5553955 C16.3909505,17.6834584 16.9491455,17.5449608 17.2641546,17.2931393 C17.5482007,17.0008147 17.8741242,16.7493992 18.2322425,16.5485753 C18.4713372,16.3487893 18.7183275,15.8208982 18.6522403,15.3632501 L17.8603626,9.87957036 C17.7947004,9.42486545 17.4655817,8.99194744 17.0907848,8.83770469 C17.0641516,8.82882623 17.037754,8.81943248 17.0116038,8.80953526 C16.9884114,8.80257768 16.9651057,8.79672435 16.9417361,8.79203361 L16.9392912,8.78062306 L16.9392912,8.78062306 L16.9392912,8.78062306 Z M18.9139448,8.60371591 C19.0124854,8.53946217 19.1053389,8.46721603 19.1915856,8.38789723 C19.4702164,8.2590522 19.9465272,8.29188393 20.3424207,8.48094726 L30.9485782,13.5460359 C31.3076022,13.7174918 31.6105373,14.1069336 31.7275065,14.5181851 C31.7279145,14.5119218 31.7283395,14.5056632 31.7287814,14.4994092 C31.597233,14.8978872 31.2710955,15.2615641 30.8931848,15.3920534 L24.6942346,17.5324971 C24.3020958,17.6678992 23.7795717,17.591053 23.400576,17.3647588 C22.7164276,16.6271802 21.7724618,16.133997 20.7142137,16.0307445 C20.3242056,15.9035965 19.9732428,15.5305989 19.8767395,15.106843 L18.6496169,9.71841954 C18.5578227,9.31534154 18.7166323,8.84605129 18.9139448,8.60371591 L18.9139448,8.60371591 L18.9139448,8.60371591 Z M19.8709325,6.69306737 C19.863705,6.58049553 19.8476713,6.47032022 19.8235131,6.36322307 C19.8235642,6.35563685 19.8237023,6.34807072 19.8239284,6.34052632 L19.8242425,6.33004271 L19.8153801,6.32854077 C19.8069057,6.2937328 19.7975701,6.25926201 19.787397,6.22515226 C20.1050721,6.09168268 20.4095751,5.9700895 20.6961581,5.86284832 L24.197504,4.55262201 C25.4313991,4.09089048 27.0897574,3.64104649 28.7590493,3.29086941 L28.7590493,3.29086941 C28.7641388,4.42602414 29.6634278,5.34998451 30.7888224,5.39465661 C31.0335554,5.55342198 31.2969478,5.90905371 31.4366349,6.29315595 L33.1063876,10.8845285 C33.2840071,11.3729345 33.0953304,12.0262437 32.7626645,12.2836216 C32.491932,12.6046528 31.8853916,12.6911201 31.4149211,12.4798958 L20.6538115,7.64854416 C20.2885979,7.48457633 19.9842452,7.09298402 19.8709325,6.69306737 L19.8709325,6.69306737 L19.8709325,6.69306737 Z M32.453985,4.68769306 C32.5262604,4.60657106 32.5923812,4.51984593 32.6516145,4.42825057 C32.658103,4.42193545 32.6646592,4.41572882 32.6712825,4.40963382 L32.663814,4.40916279 C32.8700198,4.08268829 32.9893572,3.6958721 32.9893572,3.28118317 C32.9893572,3.06457758 32.9567982,2.85557654 32.8963073,2.65880718 C33.0021125,2.65047534 33.1058221,2.64319612 33.2072459,2.63700991 L38.3503086,2.32331553 C39.1432238,2.27495271 40.0853909,2.18538611 41.0831107,2.06793913 L41.0831107,2.06793913 C41.0462474,2.26802564 41.0269834,2.47427631 41.0269834,2.68502633 C41.0269834,3.36407789 41.2269775,3.99641833 41.5712766,4.52635866 C41.6821483,4.90490849 41.5851702,5.39487069 41.3078146,5.72608496 L36.9891369,10.8833911 C36.751192,11.1675417 36.3336394,11.3839709 35.9271893,11.4578883 C35.6638303,11.3921183 35.3882537,11.357202 35.104522,11.357202 C35.0004101,11.357202 34.8973963,11.3619033 34.7956812,11.371105 C34.4299902,11.2310911 34.1031241,10.9270444 33.9772525,10.5726574 L32.318615,5.90282375 C32.1855634,5.52822175 32.2507723,5.04364596 32.453985,4.68769306 L32.453985,4.68769306 L32.453985,4.68769306 Z M43.3809585,5.90960476 C43.4153131,5.92057216 43.4499061,5.93100575 43.4847277,5.94089579 C43.4869796,5.94179708 43.4892203,5.94271077 43.4914499,5.94363689 L43.4944688,5.94364657 C43.7860328,6.02550747 44.093527,6.06929002 44.4112471,6.06929002 C44.7697631,6.06929002 45.1152585,6.01354209 45.4395376,5.91024194 C45.7863874,5.86663806 46.1927327,6.10603307 46.4038209,6.49876695 L48.5612512,10.512709 C48.7728955,10.9064774 48.7194293,11.4502521 48.4542804,11.8187335 C47.4462246,12.7207491 46.655711,13.8608812 46.1711477,15.1507217 C45.9320688,15.5110943 45.4779719,15.7284528 45.0451474,15.6532139 L39.3940869,14.6708779 C39.0680303,14.6141988 38.7081374,14.4056648 38.4356156,14.1406539 C38.3425891,13.6214356 38.1311423,13.1432855 37.8302219,12.73515 C37.8344642,12.3635841 37.9458266,11.9737822 38.1465889,11.7084111 L42.1811817,6.37541596 C42.4615922,6.00476449 43.0139369,5.83041777 43.3809585,5.90960476 L43.3809585,5.90960476 L43.3809585,5.90960476 Z M41.4070947,30.6834855 C41.4043562,30.7275446 41.4029666,30.7719692 41.4029666,30.8167182 C41.4029666,30.8904158 41.4067357,30.963233 41.4140916,31.0349877 C41.3599753,31.4398023 41.1185382,31.8507235 40.7830385,32.0508818 L36.971847,34.3246288 C36.5288132,34.5889417 36.0086917,34.6297896 35.8046992,34.4191011 L35.8005539,34.424037 C35.053217,33.7589683 34.0684728,33.354916 32.9893572,33.354916 C32.9741172,33.354916 32.9588961,33.3549966 32.9436943,33.3551574 C32.5002901,33.2781141 32.0874541,32.9262584 31.9665547,32.4847625 L30.8729661,28.491236 C30.7683553,28.1092221 30.8609101,27.6204131 30.9892656,27.3397389 C31.1124743,27.2330177 31.223226,27.112298 31.3190472,26.9800534 C31.6057017,26.8208218 32.039809,26.7957503 32.4231189,26.9432233 L40.7175704,30.1343952 C41.1951455,30.3181354 41.4029423,30.6762637 41.4070947,30.6834855 L41.4070947,30.6834855 L41.4070947,30.6834855 Z M30.5335085,34.1403521 C30.4812087,34.1777032 30.4297953,34.2162156 30.379306,34.2558517 L30.3742945,34.2589778 L30.3751878,34.2590887 C29.3910151,35.0336641 28.7590275,36.2356506 28.7590275,37.5852456 C28.7590275,37.8364072 28.7809156,38.0824566 28.8228884,38.3215903 C28.8231441,38.7129272 28.5750472,39.1489808 28.1891249,39.3379234 L22.2015053,42.2693865 C21.7369147,42.4968442 21.5550941,42.3077458 21.786274,41.8514902 L28.5337635,28.5346765 C28.7136974,28.1795598 29.0208928,27.9070557 29.2957231,27.8330242 C29.3388964,27.8393515 29.3824935,27.8443745 29.4264731,27.848052 C29.6394277,27.9059021 29.8833942,28.2864023 29.9905483,28.7391016 L30.9656672,32.8587375 C31.0690577,33.2955367 30.8802359,33.8310829 30.5335085,34.1403521 L30.5335085,34.1403521 L30.5335085,34.1403521 Z M31.6403625,25.162484 C31.5627675,24.8886433 31.431396,24.6374018 31.2583817,24.4208931 C31.0819919,24.1545692 31.0962899,23.6161644 31.2938433,23.1852654 L33.356647,18.6859241 C33.5376052,18.2912221 33.9757031,18.0407404 34.3740274,18.0466874 C34.6092828,18.0984468 34.8537163,18.1257294 35.104522,18.1257294 C35.2873332,18.1257294 35.466759,18.1112344 35.6417127,18.0833311 L35.6451402,18.0833492 C35.6467321,18.0828928 35.6483274,18.0824467 35.6499261,18.0820108 C35.6746781,18.0780005 35.69934,18.0737218 35.723909,18.0691776 C36.0250016,18.0447096 36.4124381,18.3294425 36.6311807,18.7572633 L41.8443637,28.9533031 C42.0799531,29.4140733 41.8826302,29.6363238 41.4068871,29.4509823 L32.5764533,26.0107936 C32.1922399,25.8611105 31.8095505,25.4698267 31.6403625,25.162484 L31.6403625,25.162484 L31.6403625,25.162484 Z M29.2864531,23.6490008 C28.9857437,23.6944356 28.7057955,23.8031813 28.4606219,23.9612245 C28.1566682,24.0675681 27.6897475,24.0057044 27.3261682,23.7973724 L24.9575978,22.4401746 C24.5796512,22.2236101 24.3576914,21.7518107 24.3499394,21.4615081 C24.4662122,21.0750304 24.5286979,20.6652595 24.5286979,20.2408942 C24.5286979,19.9919551 24.5071955,19.7480381 24.4659466,19.5108993 L24.467438,19.483743 C24.3758946,19.2119101 24.6959918,18.8467242 25.1741589,18.6711025 L31.1660534,16.4703939 C31.5400322,16.3330386 32.000226,16.4234641 32.2971013,16.6319571 C32.4017167,16.7870083 32.5188384,16.9329252 32.6470196,17.0682609 C32.791865,17.4099318 32.778905,17.8879875 32.5897911,18.2619053 L30.2923362,22.8044561 C30.0580086,23.2677709 29.4420812,23.6433612 29.2819187,23.643361 L29.2864531,23.6490008 L29.2864531,23.6490008 L29.2864531,23.6490008 Z M27.513468,25.4236985 C27.4979642,25.5269849 27.4899287,25.6327154 27.4899287,25.7403227 C27.4899287,25.744537 27.489941,25.7487485 27.4899656,25.752957 C27.4898725,25.753215 27.4897792,25.7534729 27.4896856,25.7537306 L27.4899685,25.7534698 C27.4927307,26.207268 27.6383984,26.6271803 27.8842396,26.9704744 C27.9935449,27.3049037 27.9989476,27.7894272 27.8257457,28.1354746 L21.1273279,41.5185231 C20.8979074,41.9768918 20.715094,41.9282389 20.7191773,41.4095047 L20.8456047,25.3484292 C20.8490118,24.9155866 21.1050737,24.5061457 21.4542772,24.3113666 C22.2838368,24.0762529 23.0096878,23.5943828 23.5474944,22.9500925 L23.8114638,22.6825968 L26.9548378,24.5550475 C27.2711641,24.7434772 27.4703952,25.1103854 27.513468,25.4236985 L27.513468,25.4236985 L27.513468,25.4236985 Z M8.62131745,16.9497272 C8.26204085,17.5272243 7.73364778,17.9885738 7.10538069,18.2645333 L7.08718757,18.2799414 C6.7136055,18.3934152 6.42998493,18.8981613 6.45403504,19.4144448 L6.74474962,25.6552116 C6.76530891,26.0965577 7.08512641,26.499416 7.50896452,26.6403971 C8.83262619,26.7900927 10.0637345,27.2452129 11.1301254,27.9335938 C11.5290938,28.09321 12.0476334,27.9876873 12.3694759,27.6522853 L16.3643688,23.4890829 C16.6342047,23.2078785 16.7387744,22.7722903 16.6528797,22.388397 C16.2812635,21.7589197 16.0680387,21.0248076 16.0680387,20.2408942 C16.0680387,20.0845828 16.0765165,19.9302515 16.0930374,19.778335 C16.0248611,19.3724253 15.7327298,18.9898819 15.3526238,18.8481839 L9.73333404,16.753394 C9.30602652,16.5941 8.80829029,16.7515668 8.62131745,16.9497272 L8.62131745,16.9497272 L8.62131745,16.9497272 Z M4.67926925,18.3773216 C4.29568889,18.2500678 3.94255912,18.0560404 3.63365727,17.8090165 L3.63365727,17.8090165 C3.0061094,18.8345458 2.51534852,19.893965 2.25921323,20.8490891 L0.790740258,26.3249998 C0.557983262,27.1929466 0.381585087,28.2544142 0.268228817,29.3767434 C1.36283176,28.16531 2.80305645,27.2721373 4.43342498,26.8527032 L4.42230818,26.8426298 C4.91874234,26.7382009 5.32143721,26.2372557 5.32175677,25.716555 L5.32561948,19.4223933 C5.32587985,18.9981344 5.05076784,18.5771474 4.67926925,18.3773216 L4.67926925,18.3773216 L4.67926925,18.3773216 Z M13.2762346,29.9170491 C14.3629071,31.3401666 15.0083427,33.1182325 15.0083427,35.0470478 C15.0083427,36.2608517 14.7527381,37.4149558 14.2924184,38.458471 C14.2400217,38.8723148 14.4246045,39.3233334 14.7666421,39.5556385 L18.1047968,41.8228461 C18.5324477,42.113298 19.2179128,42.1203535 19.374722,42.0146359 C19.7113373,41.9039571 19.9732249,41.4002586 19.9593143,40.8764174 L19.5459229,25.3089511 C19.535068,24.9001784 19.2793944,24.4779338 18.9259297,24.2436239 C18.6650982,24.1542121 18.4157715,24.040023 18.1807588,23.9038657 C17.7904368,23.8037247 17.347782,23.9289235 17.0835181,24.2507841 L13.4414833,28.6866055 C13.1719336,29.0149039 13.1136844,29.5177897 13.2762346,29.9170491 L13.2762346,29.9170491 L13.2762346,29.9170491 Z M12.5442155,41.0156624 C12.306686,41.254296 12.0550065,41.478833 11.7905416,41.6879088 L11.6768864,41.7972627 L11.6727345,41.7793741 C10.2504445,42.8637661 8.47426423,43.5077071 6.54768346,43.5077071 C4.67516909,43.5077071 2.94473213,42.8994013 1.54320686,41.8696242 L1.54320686,41.8696242 C2.31774801,44.0933949 3.89142283,46.5259425 5.48743417,47.8272223 L8.34407943,50.1563378 C10.3367337,51.7810134 13.7780129,54.1263311 16.0133002,55.3851265 L16.9956975,55.9383607 C17.2557091,54.7759752 18.1136786,53.839347 19.2298496,53.4682325 L19.2298496,53.4682325 C19.2810008,53.3945562 19.6158671,52.8947519 19.6280207,52.4202771 L19.7685082,46.9357096 C19.7816823,46.421398 19.5375808,45.8965517 19.2233232,45.7622199 L19.2315101,45.7575362 C18.6044047,45.3905123 18.1832035,44.7098146 18.1832035,43.93074 C18.1832035,43.8092572 18.193445,43.6901664 18.2131116,43.5742839 C18.1712466,43.2381501 17.9042583,42.8824662 17.5240525,42.7018857 L13.8213766,40.943283 C13.4425491,40.7633572 12.9214027,40.8043855 12.5442155,41.0156624 L12.5442155,41.0156624 Z M22.3489618,43.410041 C22.3517137,43.4209116 22.3543813,43.4318158 22.3569641,43.4427527 L22.3796288,43.4401856 C22.3718817,43.4551578 22.368803,43.4769617 22.3704431,43.5038875 C22.3758616,43.5303294 22.3807866,43.5569512 22.3852082,43.5837427 C22.4408583,43.7794523 22.6499498,44.0927559 23.0217195,44.2109689 L36.2416595,48.4145633 C36.7340939,48.5711445 37.2163752,48.5019941 37.3161247,48.2592402 L37.330948,48.260217 L37.330948,48.260217 C37.5633279,48.015526 37.5419931,47.4713335 37.2768869,47.028852 L34.5454533,42.4698904 C34.3272584,42.1057073 33.8727656,41.8376693 33.4475636,41.7910477 C33.2970521,41.8072586 33.1441759,41.8155752 32.9893572,41.8155752 C31.7673497,41.8155752 30.6663609,41.2974326 29.8941033,40.4688599 L29.8933855,40.4707823 C29.6091668,40.1193836 29.0009179,40.0167352 28.542716,40.2377044 L22.8010049,43.0066616 C22.5279467,43.1383447 22.4043651,43.2999536 22.3489618,43.410041 L22.3489618,43.410041 L22.3489618,43.410041 Z M42.0937683,49.2853931 C42.1000087,49.3126245 42.1058347,49.3400139 42.1112392,49.3675544 L42.1112392,49.3675544 C42.2056387,49.6240634 42.6244149,50.0500952 43.0832066,50.1461727 L55.9054481,52.8313336 C56.3460244,52.9235966 56.8369473,52.7112563 57.0969621,52.3442752 C57.5125741,51.4781836 58.1189604,50.7210162 58.861667,50.1272269 C59.1123583,49.7933053 59.1793834,49.309177 58.996565,48.9248617 L55.9007188,42.4168689 C55.7212668,42.0396304 55.3049855,41.774862 54.8836634,41.7419936 C54.7101824,41.7747507 54.5329586,41.7969162 54.3526894,41.8077925 L54.3366544,41.8111216 L54.3354594,41.8087972 C54.2555309,41.8132957 54.1750094,41.8155752 54.0939554,41.8155752 C53.1682155,41.8155752 52.3119272,41.5182173 51.6153948,41.0138055 C51.2886797,40.8977313 50.834843,40.9911092 50.5051432,41.2671051 L42.5016977,47.9668907 C42.1497318,48.2615258 41.9871243,48.8113536 42.0641869,49.1685231 C42.0698355,49.1888896 42.0752499,49.2093535 42.080427,49.2299116 C42.0858849,49.2471017 42.0919904,49.2637068 42.0987504,49.2796652 L42.0937683,49.2853931 L42.0937683,49.2853931 L42.0937683,49.2853931 Z M40.7904972,47.546503 C40.7420891,47.5193215 40.6927521,47.4935983 40.6425458,47.469393 C40.626092,47.3891256 40.5405059,46.9291806 40.6377482,46.4749861 L43.3479767,33.8161908 C43.4247707,33.4575055 43.696863,33.0958105 44.0281359,32.8699892 C44.2660681,32.8110851 44.4881143,32.7119054 44.6866232,32.5801011 C44.9760799,32.5183969 45.4440355,32.5462525 45.7740684,32.7512953 L49.5630742,35.1053276 C49.9402591,35.339665 50.183891,35.7086171 50.173012,35.9942231 C49.9735171,36.4853723 49.8636258,37.0224757 49.8636258,37.5852456 C49.8636258,38.1728848 49.9834441,38.7325388 50.1999827,39.2411099 C50.2263775,39.6490398 50.0679583,40.0909967 49.7760834,40.3461022 L41.9032318,47.2271603 C41.5699617,47.5184462 41.1101887,47.6413769 40.7904972,47.546503 L40.7904972,47.546503 L40.7904972,47.546503 Z M35.754596,40.7867651 C36.6519004,40.011051 37.2196868,38.8644551 37.2196868,37.5852456 C37.2196868,37.2290223 37.175657,36.8830827 37.0927428,36.5525721 C37.0820518,36.2575826 37.282848,35.7267507 37.6436625,35.4598176 L41.3536969,32.7151077 C41.5895224,32.5406423 41.8919325,32.4459484 42.1661069,32.443427 C42.234355,32.5002132 42.3062332,32.5527857 42.3813421,32.6007452 C42.4855692,32.8698554 42.5430919,33.2087496 42.4822624,33.4976376 L39.7884243,46.2910743 C39.6813808,46.7994398 39.3702018,47.2058016 39.091893,47.2058016 C38.9406568,47.2534256 38.3417653,47.0113035 38.0991672,46.5563871 L35.6697988,42.000872 C35.4718336,41.6296507 35.516925,41.1357244 35.754596,40.7867651 L35.754596,40.7867651 L35.754596,40.7867651 Z M41.784367,51.2740046 L41.799517,51.2835155 C41.5578357,51.5283181 41.4515618,52.2006504 41.6801886,52.6656464 L45.6108044,60.6599858 C45.8269085,61.0995123 46.2068088,61.4192913 46.5001822,61.4318136 C46.5089128,61.4317075 46.5176561,61.4316543 46.5264119,61.4316543 C46.5302798,61.4316543 46.5341452,61.4316647 46.5380082,61.4316855 C46.548199,61.431164 46.5582656,61.4302402 46.5681964,61.4289056 L46.5675109,61.4320456 L46.5675109,61.4320456 C46.9492629,61.4393209 47.3062587,61.5477339 47.6128199,61.7316064 L47.6128199,61.7316064 L47.6139502,61.7300183 C47.6189641,61.7339804 47.624102,61.737851 47.6293603,61.7416302 C47.6451992,61.7513283 47.6609006,61.761229 47.6764609,61.7713286 C47.9539721,61.9248225 48.4760761,61.8783048 48.8886869,61.6561092 L56.0788122,57.7841472 C56.4677868,57.5746801 56.7066218,57.1002066 56.6709455,56.6545811 C56.6420466,56.5409171 56.6162159,56.4260283 56.5935467,56.3100081 L56.5828231,56.2728544 L56.5860553,56.2710165 C56.5135561,55.8871624 56.4756271,55.4910905 56.4756271,55.0861599 C56.4756271,54.922218 56.4818443,54.7597281 56.4940556,54.5989132 C56.3921146,54.2104504 56.0704237,53.8784029 55.6725449,53.7934974 L42.8964596,51.0671376 C42.4054085,50.9623494 41.9211563,51.0556697 41.784367,51.2740046 L41.784367,51.2740046 L41.784367,51.2740046 Z M36.8036363,49.692009 C36.7990079,49.7564199 36.7966538,49.8214604 36.7966538,49.8870508 C36.7966538,49.9579823 36.7994069,50.0282708 36.8048121,50.0978152 C36.7748017,50.4479362 36.4612314,50.7950896 36.0370138,50.9194866 L23.8912851,54.4810824 C23.398294,54.6256464 22.7569587,54.4001485 22.6204051,54.206528 L22.6145767,54.2128669 C22.2877923,53.9059967 21.9000316,53.6633048 21.4714165,53.504913 L21.4749817,53.5004217 C21.2276066,53.4333674 21.0100047,52.9614477 20.9889045,52.4451426 L20.7638941,46.9393155 C20.744937,46.4754509 21.0441865,45.9693365 21.2810182,45.8042761 C21.3064132,45.7909293 21.3315035,45.7770812 21.3562762,45.7627451 C21.3567277,45.7625684 21.3571787,45.7623934 21.3576292,45.7622199 L21.3573919,45.762099 C21.5924305,45.6258892 21.7988269,45.4457302 21.965338,45.2328654 C22.2074674,45.0600999 22.6726206,45.0191772 23.0927393,45.1485842 L36.2461573,49.2001639 C36.6085868,49.3118012 36.7564518,49.5629039 36.8036363,49.692009 L36.8036363,49.692009 L36.8036363,49.692009 Z M44.7745585,62.3611455 C44.5452255,62.6993284 44.4112471,63.1074276 44.4112471,63.5468191 C44.4112471,63.5711092 44.4116565,63.5953036 44.4124689,63.6193959 L44.4124689,63.6193959 L28.7319468,60.7926702 C27.0614197,60.4915244 24.7923482,59.7765288 22.7990129,58.9607413 C23.3478971,58.3591839 23.682632,57.5588595 23.682632,56.6803536 C23.682632,56.6448863 23.6820864,56.6095465 23.6810032,56.574342 L23.6924571,56.5776905 C23.6095272,56.2277376 23.9410037,55.8155629 24.4278324,55.6586831 L36.4768691,51.7758992 C36.8727206,51.6483367 37.3993902,51.735963 37.7268856,51.9181746 C38.123234,52.2603994 38.6208141,52.4885732 39.1686361,52.5517062 L39.2164372,52.5705017 C39.7086096,52.531363 40.3064544,52.8681281 40.5488989,53.3173839 L44.7391026,61.0819378 C44.9828285,61.5335682 44.8973125,62.2011232 44.7524132,62.3554104 L44.7745585,62.3611455 L44.7745585,62.3611455 L44.7745585,62.3611455 Z" id="Path-758-Copy" sketch:type="MSShapeGroup"></path>
            </g>
        </g>
    </g>
</svg>